<svg width="1024" height="1024" viewBox="0 0 1024 1024" fill="none" xmlns="http://www.w3.org/2000/svg">
<mask id="mask0_9_10" style="mask-type:alpha" maskUnits="userSpaceOnUse" x="0" y="0" width="1024" height="1024">
<rect width="1024" height="1024" rx="161" fill="#FFFCFC"/>
</mask>
<g mask="url(#mask0_9_10)">
<rect width="1024" height="1024" fill="#2D2D2D"/>
<rect width="1024" height="587" fill="#F5F5F5"/>
<path d="M258.52 862.12C245.4 862.12 234.627 859.027 226.2 852.84C217.773 846.547 213.24 837.587 212.6 825.96H246.04C246.36 829.907 247.533 832.787 249.56 834.6C251.587 836.413 254.2 837.32 257.4 837.32C260.28 837.32 262.627 836.627 264.44 835.24C266.36 833.747 267.32 831.72 267.32 829.16C267.32 825.853 265.773 823.293 262.68 821.48C259.587 819.667 254.573 817.64 247.64 815.4C240.28 812.947 234.307 810.6 229.72 808.36C225.24 806.013 221.293 802.653 217.88 798.28C214.573 793.8 212.92 787.987 212.92 780.84C212.92 773.587 214.733 767.4 218.36 762.28C221.987 757.053 227 753.107 233.4 750.44C239.8 747.773 247.053 746.44 255.16 746.44C268.28 746.44 278.733 749.533 286.52 755.72C294.413 761.8 298.627 770.387 299.16 781.48H265.08C264.973 778.067 263.907 775.507 261.88 773.8C259.96 772.093 257.453 771.24 254.36 771.24C252.013 771.24 250.093 771.933 248.6 773.32C247.107 774.707 246.36 776.68 246.36 779.24C246.36 781.373 247.16 783.24 248.76 784.84C250.467 786.333 252.547 787.667 255 788.84C257.453 789.907 261.08 791.293 265.88 793C273.027 795.453 278.893 797.907 283.48 800.36C288.173 802.707 292.173 806.067 295.48 810.44C298.893 814.707 300.6 820.147 300.6 826.76C300.6 833.48 298.893 839.507 295.48 844.84C292.173 850.173 287.32 854.387 280.92 857.48C274.627 860.573 267.16 862.12 258.52 862.12ZM400.939 815.08C400.939 817.533 400.779 819.987 400.459 822.44H341.099C341.419 827.347 342.752 831.027 345.099 833.48C347.552 835.827 350.645 837 354.379 837C359.605 837 363.339 834.653 365.579 829.96H399.019C397.632 836.147 394.912 841.693 390.859 846.6C386.912 851.4 381.899 855.187 375.819 857.96C369.739 860.733 363.019 862.12 355.659 862.12C346.805 862.12 338.912 860.253 331.979 856.52C325.152 852.787 319.765 847.453 315.819 840.52C311.979 833.587 310.059 825.427 310.059 816.04C310.059 806.653 311.979 798.547 315.819 791.72C319.659 784.787 324.992 779.453 331.819 775.72C338.752 771.987 346.699 770.12 355.659 770.12C364.512 770.12 372.352 771.933 379.179 775.56C386.005 779.187 391.339 784.413 395.179 791.24C399.019 797.96 400.939 805.907 400.939 815.08ZM368.939 807.24C368.939 803.4 367.659 800.413 365.099 798.28C362.539 796.04 359.339 794.92 355.499 794.92C351.659 794.92 348.512 795.987 346.059 798.12C343.605 800.147 342.005 803.187 341.259 807.24H368.939ZM408.653 816.04C408.653 806.76 410.306 798.653 413.613 791.72C417.026 784.787 421.613 779.453 427.373 775.72C433.239 771.987 439.746 770.12 446.893 770.12C453.079 770.12 458.413 771.347 462.893 773.8C467.373 776.253 470.839 779.56 473.293 783.72V771.24H504.653V861H473.293V848.52C470.839 852.68 467.319 855.987 462.733 858.44C458.253 860.893 452.973 862.12 446.893 862.12C439.746 862.12 433.239 860.253 427.373 856.52C421.613 852.787 417.026 847.453 413.613 840.52C410.306 833.48 408.653 825.32 408.653 816.04ZM473.293 816.04C473.293 810.28 471.693 805.747 468.493 802.44C465.399 799.133 461.559 797.48 456.973 797.48C452.279 797.48 448.386 799.133 445.293 802.44C442.199 805.64 440.653 810.173 440.653 816.04C440.653 821.8 442.199 826.387 445.293 829.8C448.386 833.107 452.279 834.76 456.973 834.76C461.559 834.76 465.399 833.107 468.493 829.8C471.693 826.493 473.293 821.907 473.293 816.04ZM553.883 787.08C557.403 781.96 561.669 777.907 566.683 774.92C571.696 771.933 577.083 770.44 582.843 770.44V803.88H574.043C567.216 803.88 562.149 805.213 558.843 807.88C555.536 810.547 553.883 815.187 553.883 821.8V861H522.523V771.24H553.883V787.08ZM588.965 816.04C588.965 806.76 590.885 798.653 594.725 791.72C598.565 784.787 603.898 779.453 610.725 775.72C617.658 771.987 625.552 770.12 634.405 770.12C645.818 770.12 655.418 773.267 663.205 779.56C670.992 785.747 676.005 794.44 678.245 805.64H644.965C643.045 799.773 639.312 796.84 633.765 796.84C629.818 796.84 626.672 798.493 624.325 801.8C622.085 805 620.965 809.747 620.965 816.04C620.965 822.333 622.085 827.133 624.325 830.44C626.672 833.747 629.818 835.4 633.765 835.4C639.418 835.4 643.152 832.467 644.965 826.6H678.245C676.005 837.693 670.992 846.387 663.205 852.68C655.418 858.973 645.818 862.12 634.405 862.12C625.552 862.12 617.658 860.253 610.725 856.52C603.898 852.787 598.565 847.453 594.725 840.52C590.885 833.587 588.965 825.427 588.965 816.04ZM750.313 770.44C760.553 770.44 768.659 773.907 774.633 780.84C780.713 787.667 783.753 796.947 783.753 808.68V861H752.393V812.84C752.393 807.72 751.059 803.72 748.393 800.84C745.726 797.853 742.153 796.36 737.673 796.36C732.979 796.36 729.299 797.853 726.633 800.84C723.966 803.72 722.633 807.72 722.633 812.84V861H691.273V742.6H722.633V784.04C725.406 779.987 729.139 776.733 733.833 774.28C738.633 771.72 744.126 770.44 750.313 770.44Z" fill="#F5F5F5"/>
</g>
</svg>
